<svg width="33" height="33" viewBox="0 0 33 33" fill="none" xmlns="http://www.w3.org/2000/svg">
<path d="M29.4693 7.755C29.3967 7.66786 29.3058 7.59775 29.2031 7.54963C29.1004 7.50151 28.9884 7.47657 28.875 7.47656H7.86328L7.04215 2.95582C7.00985 2.7776 6.91603 2.61637 6.77704 2.50024C6.63806 2.3841 6.46272 2.32043 6.2816 2.32031H3.09375C2.88862 2.32031 2.69189 2.4018 2.54685 2.54685C2.4018 2.69189 2.32031 2.88862 2.32031 3.09375C2.32031 3.29888 2.4018 3.49561 2.54685 3.64065C2.69189 3.7857 2.88862 3.86719 3.09375 3.86719H5.63578L8.96285 22.1641C9.06716 22.7411 9.34826 23.2713 9.76723 23.6814C9.26092 24.0858 8.88271 24.6283 8.67838 25.2433C8.47406 25.8582 8.45239 26.5192 8.61599 27.1462C8.77959 27.7732 9.12145 28.3394 9.60018 28.7761C10.0789 29.2128 10.674 29.5014 11.3133 29.6069C11.9527 29.7124 12.6089 29.6303 13.2026 29.3705C13.7962 29.1107 14.3018 28.6844 14.6582 28.1432C15.0146 27.602 15.2064 26.9691 15.2105 26.3211C15.2145 25.6731 15.0307 25.0378 14.6811 24.4922H21.4126C21.0118 25.1194 20.8312 25.8622 20.8993 26.6035C20.9674 27.3447 21.2803 28.0422 21.7887 28.5859C22.2971 29.1296 22.972 29.4886 23.707 29.6063C24.4419 29.724 25.1952 29.5936 25.8479 29.2358C26.5006 28.878 27.0157 28.3131 27.3118 27.6301C27.6079 26.9472 27.6682 26.1852 27.4833 25.4641C27.2983 24.7431 26.8786 24.1042 26.2904 23.6481C25.7021 23.192 24.9787 22.9448 24.2344 22.9453H11.7524C11.4505 22.9454 11.1582 22.8394 10.9264 22.646C10.6946 22.4526 10.538 22.184 10.4839 21.887L10.0199 19.3359H25.2785C25.9427 19.3361 26.5858 19.1032 27.0959 18.6777C27.6059 18.2523 27.9504 17.6613 28.0693 17.0079L29.6355 8.38793C29.6558 8.27669 29.6514 8.16237 29.6226 8.05301C29.5939 7.94366 29.5416 7.84193 29.4693 7.755ZM13.6641 26.2969C13.6641 26.6538 13.5582 27.0027 13.3599 27.2995C13.1616 27.5963 12.8798 27.8276 12.55 27.9642C12.2202 28.1008 11.8574 28.1365 11.5073 28.0669C11.1572 27.9973 10.8357 27.8254 10.5833 27.573C10.3309 27.3206 10.159 26.999 10.0894 26.649C10.0197 26.2989 10.0555 25.936 10.1921 25.6063C10.3287 25.2765 10.56 24.9946 10.8567 24.7963C11.1535 24.598 11.5024 24.4922 11.8594 24.4922C12.338 24.4922 12.797 24.6823 13.1355 25.0208C13.4739 25.3592 13.6641 25.8182 13.6641 26.2969ZM26.0391 26.2969C26.0391 26.6538 25.9332 27.0027 25.7349 27.2995C25.5366 27.5963 25.2548 27.8276 24.925 27.9642C24.5952 28.1008 24.2324 28.1365 23.8823 28.0669C23.5322 27.9973 23.2107 27.8254 22.9583 27.573C22.7059 27.3206 22.534 26.999 22.4644 26.649C22.3947 26.2989 22.4305 25.936 22.5671 25.6063C22.7037 25.2765 22.935 24.9946 23.2317 24.7963C23.5285 24.598 23.8774 24.4922 24.2344 24.4922C24.713 24.4922 25.172 24.6823 25.5105 25.0208C25.8489 25.3592 26.0391 25.8182 26.0391 26.2969ZM26.547 16.7307C26.4929 17.0278 26.3363 17.2964 26.1045 17.4898C25.8727 17.6832 25.5804 17.7891 25.2785 17.7891H9.73887L8.14559 9.02344H27.9482L26.547 16.7307Z" fill="white"/>
</svg>
