<svg width="65" height="65" viewBox="0 0 65 65" fill="none" xmlns="http://www.w3.org/2000/svg">
<rect width="65" height="65" rx="32.5" fill="white" fill-opacity="0.1"/>
<path d="M32.5 40.2238C32.9903 40.2238 33.4016 40.0577 33.7339 39.7254C34.0661 39.3932 34.2317 38.9824 34.2305 38.4933C34.2294 38.0041 34.0633 37.5934 33.7321 37.2612C33.401 36.9289 32.9903 36.7628 32.5 36.7628C32.0097 36.7628 31.599 36.9289 31.2679 37.2612C30.9368 37.5934 30.7707 38.0041 30.7695 38.4933C30.7683 38.9824 30.9345 39.3937 31.2679 39.7271C31.6013 40.0606 32.012 40.2261 32.5 40.2238ZM30.7695 33.3017H34.2305V22.9186H30.7695V33.3017ZM15.1948 52.3374V21.1881C15.1948 20.2363 15.534 19.4218 16.2124 18.7446C16.8907 18.0674 17.7052 17.7282 18.6559 17.7271H46.3442C47.296 17.7271 48.111 18.0662 48.7894 18.7446C49.4678 19.423 49.8064 20.2375 49.8052 21.1881V41.9543C49.8052 42.9061 49.4666 43.7212 48.7894 44.3995C48.1122 45.0779 47.2971 45.4165 46.3442 45.4154H22.1169L15.1948 52.3374ZM20.646 41.9543H46.3442V21.1881H18.6559V43.9012L20.646 41.9543Z" fill="white"/>
</svg>
