<svg width="297" height="20" viewBox="0 0 297 20" fill="none" xmlns="http://www.w3.org/2000/svg">
<path d="M5.94336 1.20117C7.25846 1.20117 8.44987 1.50065 9.51758 2.09961C10.5853 2.69857 11.4219 3.52539 12.0273 4.58008C12.6328 5.62826 12.9355 6.80013 12.9355 8.0957C12.9355 9.39128 12.6328 10.5664 12.0273 11.6211C11.4219 12.6758 10.5853 13.5026 9.51758 14.1016C8.44987 14.7005 7.25846 15 5.94336 15H0.621094V1.20117H5.94336ZM5.92383 13.2812C7.38216 13.2812 8.60286 12.7865 9.58594 11.7969C10.569 10.8073 11.0605 9.57357 11.0605 8.0957C11.0605 7.12565 10.8359 6.24674 10.3867 5.45898C9.94401 4.66471 9.32878 4.04297 8.54102 3.59375C7.75977 3.14453 6.88737 2.91992 5.92383 2.91992H2.45703V13.2812H5.92383ZM20.123 15.2441C19.1074 15.2441 18.1829 15.013 17.3496 14.5508C16.5163 14.082 15.862 13.4408 15.3867 12.627C14.918 11.8066 14.6836 10.8984 14.6836 9.90234C14.6836 8.90625 14.918 8.0013 15.3867 7.1875C15.862 6.36719 16.5163 5.72591 17.3496 5.26367C18.1829 4.79492 19.1074 4.56055 20.123 4.56055C21.6595 4.56055 22.9453 5.07161 23.9805 6.09375C25.0221 7.11589 25.543 8.38542 25.543 9.90234C25.543 11.4193 25.0221 12.6888 23.9805 13.7109C22.9453 14.7331 21.6595 15.2441 20.123 15.2441ZM20.123 13.584C21.1647 13.584 22.0306 13.2324 22.7207 12.5293C23.4173 11.8262 23.7656 10.9505 23.7656 9.90234C23.7656 8.85417 23.4173 7.97852 22.7207 7.27539C22.0306 6.57227 21.1647 6.2207 20.123 6.2207C19.0749 6.2207 18.2025 6.57227 17.5059 7.27539C16.8092 7.97852 16.4609 8.85417 16.4609 9.90234C16.4609 10.9505 16.8092 11.8262 17.5059 12.5293C18.2025 13.2324 19.0749 13.584 20.123 13.584ZM33.1992 4.56055C34.4427 4.56055 35.4421 4.93815 36.1973 5.69336C36.959 6.44857 37.3398 7.45117 37.3398 8.70117V15H35.6211V9.23828C35.6211 8.32682 35.3509 7.59766 34.8105 7.05078C34.2702 6.4974 33.5475 6.2207 32.6426 6.2207C31.6986 6.2207 30.9434 6.50065 30.377 7.06055C29.8105 7.62044 29.5273 8.35938 29.5273 9.27734V15H27.8086V4.80469H29.5273V6.35742C30.3542 5.15951 31.5781 4.56055 33.1992 4.56055ZM45.4453 6.35742H42.3789V12.002C42.3789 13.0566 42.9258 13.584 44.0195 13.584C44.4948 13.584 44.9701 13.457 45.4453 13.2031V14.8242C44.931 15.1042 44.3353 15.2441 43.6582 15.2441C42.6751 15.2441 41.9297 14.987 41.4219 14.4727C40.9141 13.9583 40.6602 13.2259 40.6602 12.2754V6.35742H38.8242V4.80469H40.6602V2.06055H42.3789V4.80469H45.4453V6.35742ZM58.2676 4.56055C59.7259 4.56055 60.9434 5.07161 61.9199 6.09375C62.8965 7.11589 63.3848 8.38542 63.3848 9.90234C63.3848 11.4193 62.8965 12.6888 61.9199 13.7109C60.9434 14.7331 59.7259 15.2441 58.2676 15.2441C57.4342 15.2441 56.6758 15.0618 55.9922 14.6973C55.3086 14.3262 54.7487 13.8151 54.3125 13.1641V15H52.5938V0.595703H54.3125V6.64062C54.7487 5.98958 55.3086 5.48177 55.9922 5.11719C56.6758 4.74609 57.4342 4.56055 58.2676 4.56055ZM57.9453 13.584C58.9935 13.584 59.8659 13.2324 60.5625 12.5293C61.2591 11.8262 61.6074 10.9505 61.6074 9.90234C61.6074 8.85417 61.2591 7.97852 60.5625 7.27539C59.8659 6.57227 58.9935 6.2207 57.9453 6.2207C56.9036 6.2207 56.0378 6.57227 55.3477 7.27539C54.6576 7.97852 54.3125 8.85417 54.3125 9.90234C54.3125 10.9505 54.6576 11.8262 55.3477 12.5293C56.0378 13.2324 56.9036 13.584 57.9453 13.584ZM75.6992 9.90234C75.6992 10 75.6829 10.2539 75.6504 10.6641H66.8711C67.0469 11.5625 67.4733 12.2884 68.1504 12.8418C68.834 13.3887 69.6673 13.6621 70.6504 13.6621C71.3796 13.6621 72.0501 13.5091 72.6621 13.2031C73.2741 12.8906 73.7526 12.4902 74.0977 12.002L75.2793 13.0176C74.765 13.7077 74.0977 14.2513 73.2773 14.6484C72.4635 15.0456 71.5684 15.2441 70.5918 15.2441C68.9967 15.2441 67.6686 14.7298 66.6074 13.7012C65.5462 12.6725 65.0156 11.3932 65.0156 9.86328C65.0156 8.8737 65.2467 7.97526 65.709 7.16797C66.1777 6.35417 66.8223 5.71615 67.6426 5.25391C68.4629 4.79167 69.3743 4.56055 70.377 4.56055C71.373 4.56055 72.278 4.79167 73.0918 5.25391C73.9056 5.71615 74.5436 6.35742 75.0059 7.17773C75.4681 7.99154 75.6992 8.89974 75.6992 9.90234ZM70.3574 6.14258C69.472 6.14258 68.707 6.41927 68.0625 6.97266C67.418 7.51953 67.0143 8.22917 66.8516 9.10156H73.873C73.7103 8.21615 73.3066 7.50326 72.6621 6.96289C72.0176 6.41602 71.2493 6.14258 70.3574 6.14258ZM86.1875 15.2441C84.5404 15.2441 83.1602 14.7103 82.0469 13.6426L83.0039 12.4023C83.8372 13.2552 84.8887 13.6816 86.1582 13.6816C86.8483 13.6816 87.4147 13.5547 87.8574 13.3008C88.3001 13.0404 88.5215 12.6855 88.5215 12.2363C88.5215 12.0475 88.4727 11.8783 88.375 11.7285C88.2839 11.5723 88.1732 11.4453 88.043 11.3477C87.9193 11.25 87.7305 11.1556 87.4766 11.0645C87.2292 10.9668 87.0111 10.8952 86.8223 10.8496C86.64 10.7975 86.3796 10.7292 86.041 10.6445C85.7285 10.5664 85.4811 10.5046 85.2988 10.459C85.1165 10.4069 84.8789 10.3288 84.5859 10.2246C84.2995 10.1204 84.0651 10.0195 83.8828 9.92188C83.707 9.82422 83.5117 9.69727 83.2969 9.54102C83.0885 9.37826 82.9225 9.20898 82.7988 9.0332C82.6816 8.85091 82.5807 8.63607 82.4961 8.38867C82.418 8.13477 82.3789 7.85807 82.3789 7.55859C82.3789 6.92057 82.5612 6.37044 82.9258 5.9082C83.2904 5.44596 83.7624 5.10742 84.3418 4.89258C84.9212 4.67122 85.569 4.56055 86.2852 4.56055C87.7565 4.56055 89.0033 5.02604 90.0254 5.95703L89.0586 7.2168C88.3099 6.48763 87.3919 6.12305 86.3047 6.12305C85.6862 6.12305 85.1719 6.24023 84.7617 6.47461C84.3516 6.70898 84.1465 7.03776 84.1465 7.46094C84.1465 7.65625 84.1953 7.83203 84.293 7.98828C84.3906 8.13802 84.5013 8.26172 84.625 8.35938C84.7552 8.45703 84.9505 8.55469 85.2109 8.65234C85.4714 8.74349 85.6895 8.8151 85.8652 8.86719C86.0475 8.91276 86.3145 8.97786 86.666 9.0625C86.972 9.13411 87.2161 9.19596 87.3984 9.24805C87.5872 9.29362 87.8249 9.36523 88.1113 9.46289C88.3978 9.56055 88.6289 9.6582 88.8047 9.75586C88.987 9.84701 89.1823 9.9707 89.3906 10.127C89.599 10.2832 89.7617 10.4492 89.8789 10.625C89.9961 10.8008 90.0938 11.0156 90.1719 11.2695C90.2565 11.5169 90.2988 11.7871 90.2988 12.0801C90.2988 13.0632 89.9115 13.8379 89.1367 14.4043C88.362 14.9642 87.3789 15.2441 86.1875 15.2441ZM97.8672 4.56055C99.1107 4.56055 100.11 4.93815 100.865 5.69336C101.627 6.44857 102.008 7.45117 102.008 8.70117V15H100.289V9.23828C100.289 8.32682 100.019 7.59766 99.4785 7.05078C98.9382 6.4974 98.2155 6.2207 97.3105 6.2207C96.3665 6.2207 95.6113 6.50065 95.0449 7.06055C94.4785 7.62044 94.1953 8.35938 94.1953 9.27734V15H92.4766V0.595703H94.1953V6.41602C95.0221 5.17904 96.2461 4.56055 97.8672 4.56055ZM111.988 4.80469H113.912L108.404 17.1582C108.15 17.7507 107.789 18.2129 107.32 18.5449C106.858 18.877 106.347 19.043 105.787 19.043C105.383 19.043 104.964 18.9518 104.527 18.7695C104.098 18.5872 103.736 18.3496 103.443 18.0566L104.166 16.7383C104.55 17.168 105.003 17.3828 105.523 17.3828C106.096 17.3828 106.533 17.0768 106.832 16.4648L107.564 14.9414L103.131 4.80469H105.104L108.551 12.9395L111.988 4.80469ZM114.918 15.1367C114.553 15.1367 114.247 15.013 114 14.7656C113.759 14.5182 113.639 14.2155 113.639 13.8574C113.639 13.4993 113.759 13.1966 114 12.9492C114.247 12.7018 114.553 12.5781 114.918 12.5781C115.289 12.5781 115.598 12.7018 115.846 12.9492C116.093 13.1901 116.217 13.4928 116.217 13.8574C116.217 14.222 116.093 14.528 115.846 14.7754C115.598 15.0163 115.289 15.1367 114.918 15.1367ZM125.68 13.2812H132.984V15H123.844V1.20117H132.887V2.91992H125.68V7.19727H132.223V8.91602H125.68V13.2812ZM140.816 4.56055C142.06 4.56055 143.059 4.93815 143.814 5.69336C144.576 6.44857 144.957 7.45117 144.957 8.70117V15H143.238V9.23828C143.238 8.32682 142.968 7.59766 142.428 7.05078C141.887 6.4974 141.165 6.2207 140.26 6.2207C139.316 6.2207 138.561 6.50065 137.994 7.06055C137.428 7.62044 137.145 8.35938 137.145 9.27734V15H135.426V4.80469H137.145V6.35742C137.971 5.15951 139.195 4.56055 140.816 4.56055ZM153.062 6.35742H149.996V12.002C149.996 13.0566 150.543 13.584 151.637 13.584C152.112 13.584 152.587 13.457 153.062 13.2031V14.8242C152.548 15.1042 151.952 15.2441 151.275 15.2441C150.292 15.2441 149.547 14.987 149.039 14.4727C148.531 13.9583 148.277 13.2259 148.277 12.2754V6.35742H146.441V4.80469H148.277V2.06055H149.996V4.80469H153.062V6.35742ZM164.879 9.90234C164.879 10 164.863 10.2539 164.83 10.6641H156.051C156.227 11.5625 156.653 12.2884 157.33 12.8418C158.014 13.3887 158.847 13.6621 159.83 13.6621C160.559 13.6621 161.23 13.5091 161.842 13.2031C162.454 12.8906 162.932 12.4902 163.277 12.002L164.459 13.0176C163.945 13.7077 163.277 14.2513 162.457 14.6484C161.643 15.0456 160.748 15.2441 159.771 15.2441C158.176 15.2441 156.848 14.7298 155.787 13.7012C154.726 12.6725 154.195 11.3932 154.195 9.86328C154.195 8.8737 154.426 7.97526 154.889 7.16797C155.357 6.35417 156.002 5.71615 156.822 5.25391C157.643 4.79167 158.554 4.56055 159.557 4.56055C160.553 4.56055 161.458 4.79167 162.271 5.25391C163.085 5.71615 163.723 6.35742 164.186 7.17773C164.648 7.99154 164.879 8.89974 164.879 9.90234ZM159.537 6.14258C158.652 6.14258 157.887 6.41927 157.242 6.97266C156.598 7.51953 156.194 8.22917 156.031 9.10156H163.053C162.89 8.21615 162.486 7.50326 161.842 6.96289C161.197 6.41602 160.429 6.14258 159.537 6.14258ZM172.281 4.63867H172.623V6.41602H172.281C171.207 6.41602 170.357 6.73177 169.732 7.36328C169.114 7.98828 168.805 8.83464 168.805 9.90234V15H167.086V4.80469H168.805V6.5625C169.605 5.27995 170.764 4.63867 172.281 4.63867ZM187.867 4.80469H189.586V15H187.867V13.1641C187.431 13.8151 186.868 14.3262 186.178 14.6973C185.494 15.0618 184.736 15.2441 183.902 15.2441C182.945 15.2441 182.076 15.013 181.295 14.5508C180.514 14.082 179.902 13.4408 179.459 12.627C179.023 11.8066 178.805 10.8984 178.805 9.90234C178.805 8.90625 179.023 8.0013 179.459 7.1875C179.902 6.36719 180.514 5.72591 181.295 5.26367C182.076 4.79492 182.945 4.56055 183.902 4.56055C184.736 4.56055 185.494 4.74609 186.178 5.11719C186.868 5.48177 187.431 5.98958 187.867 6.64062V4.80469ZM184.225 13.584C185.266 13.584 186.132 13.2324 186.822 12.5293C187.519 11.8262 187.867 10.9505 187.867 9.90234C187.867 8.85417 187.519 7.97852 186.822 7.27539C186.132 6.57227 185.266 6.2207 184.225 6.2207C183.176 6.2207 182.304 6.57227 181.607 7.27539C180.911 7.97852 180.562 8.85417 180.562 9.90234C180.562 10.9505 180.911 11.8262 181.607 12.5293C182.304 13.2324 183.176 13.584 184.225 13.584ZM192.516 15V0.595703H194.234V15H192.516ZM197.145 15V0.595703H198.863V15H197.145ZM212.594 6.35742H209.527V12.002C209.527 13.0566 210.074 13.584 211.168 13.584C211.643 13.584 212.118 13.457 212.594 13.2031V14.8242C212.079 15.1042 211.484 15.2441 210.807 15.2441C209.824 15.2441 209.078 14.987 208.57 14.4727C208.062 13.9583 207.809 13.2259 207.809 12.2754V6.35742H205.973V4.80469H207.809V2.06055H209.527V4.80469H212.594V6.35742ZM220.191 4.56055C221.435 4.56055 222.434 4.93815 223.189 5.69336C223.951 6.44857 224.332 7.45117 224.332 8.70117V15H222.613V9.23828C222.613 8.32682 222.343 7.59766 221.803 7.05078C221.262 6.4974 220.54 6.2207 219.635 6.2207C218.691 6.2207 217.936 6.50065 217.369 7.06055C216.803 7.62044 216.52 8.35938 216.52 9.27734V15H214.801V0.595703H216.52V6.41602C217.346 5.17904 218.57 4.56055 220.191 4.56055ZM237.145 9.90234C237.145 10 237.128 10.2539 237.096 10.6641H228.316C228.492 11.5625 228.919 12.2884 229.596 12.8418C230.279 13.3887 231.113 13.6621 232.096 13.6621C232.825 13.6621 233.495 13.5091 234.107 13.2031C234.719 12.8906 235.198 12.4902 235.543 12.002L236.725 13.0176C236.21 13.7077 235.543 14.2513 234.723 14.6484C233.909 15.0456 233.014 15.2441 232.037 15.2441C230.442 15.2441 229.114 14.7298 228.053 13.7012C226.992 12.6725 226.461 11.3932 226.461 9.86328C226.461 8.8737 226.692 7.97526 227.154 7.16797C227.623 6.35417 228.268 5.71615 229.088 5.25391C229.908 4.79167 230.82 4.56055 231.822 4.56055C232.818 4.56055 233.723 4.79167 234.537 5.25391C235.351 5.71615 235.989 6.35742 236.451 7.17773C236.913 7.99154 237.145 8.89974 237.145 9.90234ZM231.803 6.14258C230.917 6.14258 230.152 6.41927 229.508 6.97266C228.863 7.51953 228.46 8.22917 228.297 9.10156H235.318C235.156 8.21615 234.752 7.50326 234.107 6.96289C233.463 6.41602 232.695 6.14258 231.803 6.14258ZM252.73 0.595703H254.449V15H252.73V13.1641C252.294 13.8151 251.731 14.3262 251.041 14.6973C250.357 15.0618 249.599 15.2441 248.766 15.2441C247.809 15.2441 246.939 15.013 246.158 14.5508C245.377 14.082 244.765 13.4408 244.322 12.627C243.886 11.8066 243.668 10.8984 243.668 9.90234C243.668 8.90625 243.886 8.0013 244.322 7.1875C244.765 6.36719 245.377 5.72591 246.158 5.26367C246.939 4.79492 247.809 4.56055 248.766 4.56055C249.599 4.56055 250.357 4.74609 251.041 5.11719C251.731 5.48177 252.294 5.98958 252.73 6.64062V0.595703ZM249.088 13.584C250.13 13.584 250.995 13.2324 251.686 12.5293C252.382 11.8262 252.73 10.9505 252.73 9.90234C252.73 8.85417 252.382 7.97852 251.686 7.27539C250.995 6.57227 250.13 6.2207 249.088 6.2207C248.04 6.2207 247.167 6.57227 246.471 7.27539C245.774 7.97852 245.426 8.85417 245.426 9.90234C245.426 10.9505 245.774 11.8262 246.471 12.5293C247.167 13.2324 248.04 13.584 249.088 13.584ZM267.398 9.90234C267.398 10 267.382 10.2539 267.35 10.6641H258.57C258.746 11.5625 259.173 12.2884 259.85 12.8418C260.533 13.3887 261.367 13.6621 262.35 13.6621C263.079 13.6621 263.749 13.5091 264.361 13.2031C264.973 12.8906 265.452 12.4902 265.797 12.002L266.979 13.0176C266.464 13.7077 265.797 14.2513 264.977 14.6484C264.163 15.0456 263.268 15.2441 262.291 15.2441C260.696 15.2441 259.368 14.7298 258.307 13.7012C257.245 12.6725 256.715 11.3932 256.715 9.86328C256.715 8.8737 256.946 7.97526 257.408 7.16797C257.877 6.35417 258.521 5.71615 259.342 5.25391C260.162 4.79167 261.074 4.56055 262.076 4.56055C263.072 4.56055 263.977 4.79167 264.791 5.25391C265.605 5.71615 266.243 6.35742 266.705 7.17773C267.167 7.99154 267.398 8.89974 267.398 9.90234ZM262.057 6.14258C261.171 6.14258 260.406 6.41927 259.762 6.97266C259.117 7.51953 258.714 8.22917 258.551 9.10156H265.572C265.41 8.21615 265.006 7.50326 264.361 6.96289C263.717 6.41602 262.949 6.14258 262.057 6.14258ZM279.625 9.90234C279.625 10 279.609 10.2539 279.576 10.6641H270.797C270.973 11.5625 271.399 12.2884 272.076 12.8418C272.76 13.3887 273.593 13.6621 274.576 13.6621C275.305 13.6621 275.976 13.5091 276.588 13.2031C277.2 12.8906 277.678 12.4902 278.023 12.002L279.205 13.0176C278.691 13.7077 278.023 14.2513 277.203 14.6484C276.389 15.0456 275.494 15.2441 274.518 15.2441C272.923 15.2441 271.594 14.7298 270.533 13.7012C269.472 12.6725 268.941 11.3932 268.941 9.86328C268.941 8.8737 269.173 7.97526 269.635 7.16797C270.104 6.35417 270.748 5.71615 271.568 5.25391C272.389 4.79167 273.3 4.56055 274.303 4.56055C275.299 4.56055 276.204 4.79167 277.018 5.25391C277.831 5.71615 278.469 6.35742 278.932 7.17773C279.394 7.99154 279.625 8.89974 279.625 9.90234ZM274.283 6.14258C273.398 6.14258 272.633 6.41927 271.988 6.97266C271.344 7.51953 270.94 8.22917 270.777 9.10156H277.799C277.636 8.21615 277.232 7.50326 276.588 6.96289C275.943 6.41602 275.175 6.14258 274.283 6.14258ZM287.086 6.35742H284.02V12.002C284.02 13.0566 284.566 13.584 285.66 13.584C286.135 13.584 286.611 13.457 287.086 13.2031V14.8242C286.572 15.1042 285.976 15.2441 285.299 15.2441C284.316 15.2441 283.57 14.987 283.062 14.4727C282.555 13.9583 282.301 13.2259 282.301 12.2754V6.35742H280.465V4.80469H282.301V2.06055H284.02V4.80469H287.086V6.35742ZM292.379 15.2441C290.732 15.2441 289.352 14.7103 288.238 13.6426L289.195 12.4023C290.029 13.2552 291.08 13.6816 292.35 13.6816C293.04 13.6816 293.606 13.5547 294.049 13.3008C294.492 13.0404 294.713 12.6855 294.713 12.2363C294.713 12.0475 294.664 11.8783 294.566 11.7285C294.475 11.5723 294.365 11.4453 294.234 11.3477C294.111 11.25 293.922 11.1556 293.668 11.0645C293.421 10.9668 293.202 10.8952 293.014 10.8496C292.831 10.7975 292.571 10.7292 292.232 10.6445C291.92 10.5664 291.673 10.5046 291.49 10.459C291.308 10.4069 291.07 10.3288 290.777 10.2246C290.491 10.1204 290.257 10.0195 290.074 9.92188C289.898 9.82422 289.703 9.69727 289.488 9.54102C289.28 9.37826 289.114 9.20898 288.99 9.0332C288.873 8.85091 288.772 8.63607 288.688 8.38867C288.609 8.13477 288.57 7.85807 288.57 7.55859C288.57 6.92057 288.753 6.37044 289.117 5.9082C289.482 5.44596 289.954 5.10742 290.533 4.89258C291.113 4.67122 291.76 4.56055 292.477 4.56055C293.948 4.56055 295.195 5.02604 296.217 5.95703L295.25 7.2168C294.501 6.48763 293.583 6.12305 292.496 6.12305C291.878 6.12305 291.363 6.24023 290.953 6.47461C290.543 6.70898 290.338 7.03776 290.338 7.46094C290.338 7.65625 290.387 7.83203 290.484 7.98828C290.582 8.13802 290.693 8.26172 290.816 8.35938C290.947 8.45703 291.142 8.55469 291.402 8.65234C291.663 8.74349 291.881 8.8151 292.057 8.86719C292.239 8.91276 292.506 8.97786 292.857 9.0625C293.163 9.13411 293.408 9.19596 293.59 9.24805C293.779 9.29362 294.016 9.36523 294.303 9.46289C294.589 9.56055 294.82 9.6582 294.996 9.75586C295.178 9.84701 295.374 9.9707 295.582 10.127C295.79 10.2832 295.953 10.4492 296.07 10.625C296.188 10.8008 296.285 11.0156 296.363 11.2695C296.448 11.5169 296.49 11.7871 296.49 12.0801C296.49 13.0632 296.103 13.8379 295.328 14.4043C294.553 14.9642 293.57 15.2441 292.379 15.2441Z" fill="white" fill-opacity="0.38"/>
</svg>
