<svg width="37" height="37" viewBox="0 0 37 37" fill="none" xmlns="http://www.w3.org/2000/svg">
<path d="M8.86462 14.5146H7.04237C5.53153 14.5146 4.30591 15.7387 4.30591 17.2511V30.0223C4.30591 31.5331 5.53153 32.7603 7.04237 32.7603H8.8677C10.3785 32.7603 11.6042 31.5346 11.6042 30.0223V17.2511C11.6042 15.7403 10.3785 14.5146 8.8677 14.5146" stroke="white" stroke-width="1.5" stroke-linecap="round" stroke-linejoin="round"/>
<path d="M32.6217 18.8746L30.4326 29.822C30.2659 30.6621 29.809 31.4169 29.1419 31.9541C28.4747 32.4913 27.6398 32.7768 26.7835 32.7604H15.2518C14.284 32.7604 13.3558 32.3759 12.6715 31.6916C11.9871 31.0072 11.6027 30.0791 11.6027 29.1113V18.1639C11.6321 17.4612 11.8099 16.7728 12.1245 16.1438C12.4392 15.5149 12.8834 14.9597 13.428 14.5148L14.9419 5.39117C14.9764 5.17857 15.0605 4.9771 15.1875 4.80313C15.3145 4.62916 15.4807 4.48761 15.6727 4.38997C15.8646 4.29233 16.0769 4.24136 16.2923 4.24121C16.5077 4.24106 16.7201 4.29172 16.9122 4.38909L18.608 5.22775C19.729 5.78188 20.6264 6.70318 21.151 7.83834C21.6755 8.9735 21.7955 10.254 21.4909 11.4669L20.7262 14.4963H29.0451C29.5862 14.4961 30.1207 14.6163 30.6096 14.8481C31.0986 15.08 31.5299 15.4177 31.8723 15.8368C32.2146 16.2559 32.4595 16.7459 32.5891 17.2713C32.7187 17.7967 32.7299 18.3443 32.6217 18.8746Z" stroke="white" stroke-width="1.5" stroke-linecap="round" stroke-linejoin="round"/>
</svg>
