<svg width="37" height="37" viewBox="0 0 37 37" fill="none" xmlns="http://www.w3.org/2000/svg">
<path d="M8.86459 14.5146H7.04234C5.5315 14.5146 4.30588 15.7387 4.30588 17.2511V30.0223C4.30588 31.5331 5.5315 32.7603 7.04234 32.7603H8.86767C10.3785 32.7603 11.6041 31.5346 11.6041 30.0223V17.2511C11.6041 15.7403 10.3785 14.5146 8.86767 14.5146" fill="#D9D9D9" fill-opacity="0.6"/>
<path d="M8.86459 14.5146H7.04234C5.5315 14.5146 4.30588 15.7387 4.30588 17.2511V30.0223C4.30588 31.5331 5.5315 32.7603 7.04234 32.7603H8.86767C10.3785 32.7603 11.6041 31.5346 11.6041 30.0223V17.2511C11.6041 15.7403 10.3785 14.5146 8.86767 14.5146" stroke="white" stroke-width="1.5" stroke-linecap="round" stroke-linejoin="round"/>
<path d="M32.6217 18.8746L30.4325 29.822C30.2658 30.6621 29.8089 31.4169 29.1418 31.9541C28.4746 32.4913 27.6398 32.7768 26.7834 32.7604H15.2517C14.2839 32.7604 13.3557 32.3759 12.6714 31.6916C11.987 31.0072 11.6026 30.0791 11.6026 29.1113V18.1639C11.632 17.4612 11.8099 16.7728 12.1245 16.1438C12.4391 15.5149 12.8833 14.9597 13.4279 14.5148L14.9418 5.39117C14.9763 5.17857 15.0604 4.9771 15.1874 4.80313C15.3144 4.62916 15.4806 4.48761 15.6726 4.38997C15.8645 4.29233 16.0768 4.24136 16.2922 4.24121C16.5076 4.24106 16.72 4.29172 16.9121 4.38909L18.6079 5.22775C19.7289 5.78188 20.6264 6.70318 21.1509 7.83834C21.6754 8.9735 21.7954 10.254 21.4908 11.4669L20.7262 14.4963H29.045C29.5862 14.4961 30.1206 14.6163 30.6096 14.8481C31.0985 15.08 31.5298 15.4177 31.8722 15.8368C32.2145 16.2559 32.4594 16.7459 32.589 17.2713C32.7187 17.7967 32.7298 18.3443 32.6217 18.8746Z" fill="#D9D9D9" fill-opacity="0.6" stroke="white" stroke-width="1.5" stroke-linecap="round" stroke-linejoin="round"/>
</svg>
