<svg width="30" height="30" viewBox="0 0 30 30" fill="none" xmlns="http://www.w3.org/2000/svg">
<path d="M7.18749 18.231L5.70999 18.231C4.48499 18.231 3.49124 17.2385 3.49124 16.0122L3.49124 5.65721C3.49124 4.43221 4.48499 3.43721 5.70999 3.43721L7.18999 3.43721C8.41499 3.43721 9.40874 4.43096 9.40874 5.65721L9.40874 16.0122C9.40874 17.2372 8.41499 18.231 7.18999 18.231" fill="#D9D9D9" fill-opacity="0.6"/>
<path d="M7.18749 18.231L5.70999 18.231C4.48499 18.231 3.49124 17.2385 3.49124 16.0122L3.49124 5.65721C3.49124 4.43221 4.48499 3.43721 5.70999 3.43721L7.18999 3.43721C8.41499 3.43721 9.40874 4.43096 9.40874 5.65721L9.40874 16.0122C9.40874 17.2372 8.41499 18.231 7.18999 18.231" stroke="white" stroke-width="1.5" stroke-linecap="round" stroke-linejoin="round"/>
<path d="M26.45 14.6961L24.675 5.81989C24.5399 5.13866 24.1694 4.52668 23.6285 4.0911C23.0875 3.65552 22.4106 3.42411 21.7162 3.43739L12.3662 3.43739C11.5815 3.43739 10.829 3.74911 10.2741 4.30398C9.71922 4.85886 9.4075 5.61143 9.4075 6.39614L9.4075 15.2724C9.43135 15.8421 9.57556 16.4003 9.83065 16.9103C10.0857 17.4202 10.4459 17.8704 10.8875 18.2311L12.115 25.6286C12.1429 25.801 12.2112 25.9644 12.3141 26.1054C12.4171 26.2465 12.5518 26.3613 12.7075 26.4404C12.8631 26.5196 13.0353 26.5609 13.2099 26.561C13.3845 26.5612 13.5567 26.5201 13.7125 26.4411L15.0875 25.7611C15.9964 25.3118 16.7241 24.5648 17.1494 23.6444C17.5747 22.724 17.6719 21.6858 17.425 20.7024L16.805 18.2461L23.55 18.2461C23.9888 18.2463 24.4221 18.1488 24.8186 17.9608C25.215 17.7728 25.5647 17.499 25.8423 17.1592C26.1199 16.8194 26.3184 16.4221 26.4235 15.9961C26.5286 15.5701 26.5377 15.1261 26.45 14.6961Z" fill="#D9D9D9" fill-opacity="0.6" stroke="white" stroke-width="1.5" stroke-linecap="round" stroke-linejoin="round"/>
</svg>
