<svg width="843" height="58" viewBox="0 0 843 58" fill="none" xmlns="http://www.w3.org/2000/svg">
<g filter="url(#filter0_d_1_3)">
<path d="M47.3672 2.12305H55.6953L44.5996 38H36.5508L30.1523 14.5898L23.7031 38H15.7051L4.58398 2.12305H13.0898L19.9199 26.9297L26.7246 2.12305H33.8086L40.6133 26.9297L47.3672 2.12305ZM74.916 10.8574C77.9629 10.8574 80.4173 11.7799 82.2793 13.625C84.1413 15.4531 85.0723 17.8906 85.0723 20.9375V38H77.4805V23.502C77.4805 21.8939 77.015 20.6074 76.084 19.6426C75.153 18.6777 73.9173 18.1953 72.377 18.1953C70.735 18.1953 69.4062 18.6947 68.3906 19.6934C67.375 20.6751 66.8672 21.9785 66.8672 23.6035V38H59.2754V0.548828H66.8672V14.2852C69 12 71.6829 10.8574 74.916 10.8574ZM109.955 11.4922H117.547V38H109.955V35.3594C107.822 37.543 105.148 38.6348 101.932 38.6348C98.2923 38.6348 95.2454 37.306 92.791 34.6484C90.3535 31.9909 89.1348 28.6901 89.1348 24.7461C89.1348 20.8021 90.3535 17.5013 92.791 14.8438C95.2454 12.1862 98.2923 10.8574 101.932 10.8574C105.148 10.8574 107.822 11.9492 109.955 14.1328V11.4922ZM103.455 31.2969C105.317 31.2969 106.866 30.6706 108.102 29.418C109.337 28.1654 109.955 26.6081 109.955 24.7461C109.955 22.8841 109.337 21.3268 108.102 20.0742C106.866 18.8216 105.317 18.1953 103.455 18.1953C101.61 18.1953 100.07 18.8216 98.834 20.0742C97.6152 21.3268 97.0059 22.8841 97.0059 24.7461C97.0059 26.6081 97.6152 28.1654 98.834 29.418C100.07 30.6706 101.61 31.2969 103.455 31.2969ZM140.297 18.3984H133.492V28.123C133.492 30.2389 134.601 31.2969 136.818 31.2969C137.919 31.2969 139.078 30.9837 140.297 30.3574V37.4922C138.79 38.2539 137.098 38.6348 135.219 38.6348C132.104 38.6348 129.768 37.8053 128.211 36.1465C126.671 34.4707 125.9 32.2109 125.9 29.3672V18.3984H121.889V11.4922H125.9V4.91602H133.492V11.4922H140.297V18.3984ZM346.505 0.548828H354.097V38H346.505V35.3594C344.372 37.543 341.698 38.6348 338.481 38.6348C334.842 38.6348 331.795 37.306 329.341 34.6484C326.903 31.9909 325.685 28.6901 325.685 24.7461C325.685 20.8021 326.903 17.5013 329.341 14.8438C331.795 12.1862 334.842 10.8574 338.481 10.8574C341.698 10.8574 344.372 11.9492 346.505 14.1328V0.548828ZM340.005 31.2969C341.867 31.2969 343.416 30.6706 344.651 29.418C345.887 28.1654 346.505 26.6081 346.505 24.7461C346.505 22.8841 345.887 21.3268 344.651 20.0742C343.416 18.8216 341.867 18.1953 340.005 18.1953C338.16 18.1953 336.619 18.8216 335.384 20.0742C334.165 21.3268 333.556 22.8841 333.556 24.7461C333.556 26.6081 334.165 28.1654 335.384 29.418C336.619 30.6706 338.16 31.2969 340.005 31.2969ZM372.86 38.6348C368.781 38.6348 365.37 37.306 362.628 34.6484C359.903 31.9909 358.54 28.6901 358.54 24.7461C358.54 20.8021 359.903 17.5013 362.628 14.8438C365.37 12.1862 368.781 10.8574 372.86 10.8574C375.552 10.8574 377.989 11.4668 380.173 12.6855C382.356 13.8874 384.066 15.5547 385.302 17.6875C386.537 19.8034 387.155 22.1562 387.155 24.7461C387.155 27.3359 386.537 29.6973 385.302 31.8301C384.066 33.946 382.356 35.6133 380.173 36.832C377.989 38.0339 375.552 38.6348 372.86 38.6348ZM368.214 29.418C369.45 30.6706 370.998 31.2969 372.86 31.2969C374.722 31.2969 376.271 30.6706 377.507 29.418C378.743 28.1654 379.36 26.6081 379.36 24.7461C379.36 22.8841 378.743 21.3268 377.507 20.0742C376.271 18.8216 374.722 18.1953 372.86 18.1953C370.998 18.1953 369.45 18.8216 368.214 20.0742C366.978 21.3268 366.36 22.8841 366.36 24.7461C366.36 26.6081 366.978 28.1654 368.214 29.418ZM421.001 11.4922H429.481L416.862 42.2656C416.118 44.1784 414.966 45.6934 413.409 46.8105C411.869 47.9447 410.176 48.5117 408.331 48.5117C407.078 48.5117 405.784 48.2663 404.446 47.7754C403.109 47.2845 401.975 46.6243 401.044 45.7949L403.964 39.8789C404.827 40.7422 405.86 41.1738 407.062 41.1738C408.331 41.1738 409.287 40.5137 409.931 39.1934L410.718 37.543L400.104 11.4922H408.788L414.933 28.3262L421.001 11.4922ZM443.903 38.6348C439.824 38.6348 436.413 37.306 433.671 34.6484C430.946 31.9909 429.583 28.6901 429.583 24.7461C429.583 20.8021 430.946 17.5013 433.671 14.8438C436.413 12.1862 439.824 10.8574 443.903 10.8574C446.595 10.8574 449.032 11.4668 451.216 12.6855C453.399 13.8874 455.109 15.5547 456.345 17.6875C457.58 19.8034 458.198 22.1562 458.198 24.7461C458.198 27.3359 457.58 29.6973 456.345 31.8301C455.109 33.946 453.399 35.6133 451.216 36.832C449.032 38.0339 446.595 38.6348 443.903 38.6348ZM439.257 29.418C440.493 30.6706 442.041 31.2969 443.903 31.2969C445.765 31.2969 447.314 30.6706 448.55 29.418C449.785 28.1654 450.403 26.6081 450.403 24.7461C450.403 22.8841 449.785 21.3268 448.55 20.0742C447.314 18.8216 445.765 18.1953 443.903 18.1953C442.041 18.1953 440.493 18.8216 439.257 20.0742C438.021 21.3268 437.403 22.8841 437.403 24.7461C437.403 26.6081 438.021 28.1654 439.257 29.418ZM474.753 38.6348C470.978 38.6348 467.94 37.6107 465.638 35.5625C463.353 33.4974 462.21 30.7721 462.21 27.3867V11.4922H469.802V26.3457C469.802 27.8353 470.25 29.0371 471.147 29.9512C472.062 30.8483 473.263 31.2969 474.753 31.2969C476.243 31.2969 477.436 30.8483 478.333 29.9512C479.23 29.0371 479.679 27.8353 479.679 26.3457V11.4922H487.271V27.3867C487.271 30.7721 486.128 33.4974 483.843 35.5625C481.575 37.6107 478.545 38.6348 474.753 38.6348ZM537.442 11.4922H545.72L536.401 38H528.606L523.63 20.8867L518.628 38H510.833L501.515 11.4922H509.995L514.896 28.123L519.872 11.4922H527.565L532.567 28.1738L537.442 11.4922ZM566.896 11.4922H574.487V38H566.896V35.3594C564.763 37.543 562.088 38.6348 558.872 38.6348C555.233 38.6348 552.186 37.306 549.731 34.6484C547.294 31.9909 546.075 28.6901 546.075 24.7461C546.075 20.8021 547.294 17.5013 549.731 14.8438C552.186 12.1862 555.233 10.8574 558.872 10.8574C562.088 10.8574 564.763 11.9492 566.896 14.1328V11.4922ZM560.396 31.2969C562.257 31.2969 563.806 30.6706 565.042 29.418C566.278 28.1654 566.896 26.6081 566.896 24.7461C566.896 22.8841 566.278 21.3268 565.042 20.0742C563.806 18.8216 562.257 18.1953 560.396 18.1953C558.55 18.1953 557.01 18.8216 555.774 20.0742C554.556 21.3268 553.946 22.8841 553.946 24.7461C553.946 26.6081 554.556 28.1654 555.774 29.418C557.01 30.6706 558.55 31.2969 560.396 31.2969ZM596.146 10.8574C599.192 10.8574 601.647 11.7799 603.509 13.625C605.371 15.4531 606.302 17.8906 606.302 20.9375V38H598.71V23.502C598.71 21.8939 598.236 20.6074 597.288 19.6426C596.357 18.6777 595.113 18.1953 593.556 18.1953C591.931 18.1953 590.61 18.6947 589.595 19.6934C588.596 20.6751 588.097 21.9785 588.097 23.6035V38H580.505V11.4922H588.097V14.1328C590.229 11.9492 592.912 10.8574 596.146 10.8574ZM627.503 18.3984H620.698V28.123C620.698 30.2389 621.807 31.2969 624.024 31.2969C625.125 31.2969 626.284 30.9837 627.503 30.3574V37.4922C625.996 38.2539 624.304 38.6348 622.425 38.6348C619.31 38.6348 616.974 37.8053 615.417 36.1465C613.877 34.4707 613.106 32.2109 613.106 29.3672V18.3984H609.095V11.4922H613.106V4.91602H620.698V11.4922H627.503V18.3984ZM660.358 18.3984H653.554V28.123C653.554 30.2389 654.662 31.2969 656.88 31.2969C657.98 31.2969 659.14 30.9837 660.358 30.3574V37.4922C658.852 38.2539 657.159 38.6348 655.28 38.6348C652.166 38.6348 649.83 37.8053 648.272 36.1465C646.732 34.4707 645.962 32.2109 645.962 29.3672V18.3984H641.95V11.4922H645.962V4.91602H653.554V11.4922H660.358V18.3984ZM677.091 38.6348C673.011 38.6348 669.601 37.306 666.858 34.6484C664.133 31.9909 662.771 28.6901 662.771 24.7461C662.771 20.8021 664.133 17.5013 666.858 14.8438C669.601 12.1862 673.011 10.8574 677.091 10.8574C679.782 10.8574 682.22 11.4668 684.403 12.6855C686.587 13.8874 688.297 15.5547 689.532 17.6875C690.768 19.8034 691.386 22.1562 691.386 24.7461C691.386 27.3359 690.768 29.6973 689.532 31.8301C688.297 33.946 686.587 35.6133 684.403 36.832C682.22 38.0339 679.782 38.6348 677.091 38.6348ZM672.444 29.418C673.68 30.6706 675.229 31.2969 677.091 31.2969C678.953 31.2969 680.502 30.6706 681.737 29.418C682.973 28.1654 683.591 26.6081 683.591 24.7461C683.591 22.8841 682.973 21.3268 681.737 20.0742C680.502 18.8216 678.953 18.1953 677.091 18.1953C675.229 18.1953 673.68 18.8216 672.444 20.0742C671.209 21.3268 670.591 22.8841 670.591 24.7461C670.591 26.6081 671.209 28.1654 672.444 29.418ZM722.896 10.8574C726.552 10.8574 729.599 12.1862 732.036 14.8438C734.474 17.4844 735.692 20.7852 735.692 24.7461C735.692 28.707 734.474 32.0163 732.036 34.6738C729.599 37.3145 726.552 38.6348 722.896 38.6348C719.696 38.6348 717.03 37.543 714.897 35.3594V47.877H707.306V11.4922H714.897V14.1328C717.03 11.9492 719.696 10.8574 722.896 10.8574ZM716.751 29.418C717.987 30.6706 719.535 31.2969 721.397 31.2969C723.259 31.2969 724.808 30.6706 726.044 29.418C727.28 28.1654 727.897 26.6081 727.897 24.7461C727.897 22.8841 727.28 21.3268 726.044 20.0742C724.808 18.8216 723.259 18.1953 721.397 18.1953C719.535 18.1953 717.987 18.8216 716.751 20.0742C715.515 21.3268 714.897 22.8841 714.897 24.7461C714.897 26.6081 715.515 28.1654 716.751 29.418ZM740.263 38V0.548828H747.854V38H740.263ZM773.22 11.4922H780.812V38H773.22V35.3594C771.087 37.543 768.412 38.6348 765.196 38.6348C761.557 38.6348 758.51 37.306 756.056 34.6484C753.618 31.9909 752.399 28.6901 752.399 24.7461C752.399 20.8021 753.618 17.5013 756.056 14.8438C758.51 12.1862 761.557 10.8574 765.196 10.8574C768.412 10.8574 771.087 11.9492 773.22 14.1328V11.4922ZM766.72 31.2969C768.582 31.2969 770.131 30.6706 771.366 29.418C772.602 28.1654 773.22 26.6081 773.22 24.7461C773.22 22.8841 772.602 21.3268 771.366 20.0742C770.131 18.8216 768.582 18.1953 766.72 18.1953C764.875 18.1953 763.334 18.8216 762.099 20.0742C760.88 21.3268 760.271 22.8841 760.271 24.7461C760.271 26.6081 760.88 28.1654 762.099 29.418C763.334 30.6706 764.875 31.2969 766.72 31.2969ZM804.755 11.4922H813.235L800.616 42.2656C799.871 44.1784 798.72 45.6934 797.163 46.8105C795.623 47.9447 793.93 48.5117 792.085 48.5117C790.832 48.5117 789.537 48.2663 788.2 47.7754C786.863 47.2845 785.729 46.6243 784.798 45.7949L787.718 39.8789C788.581 40.7422 789.614 41.1738 790.815 41.1738C792.085 41.1738 793.041 40.5137 793.685 39.1934L794.472 37.543L783.858 11.4922H792.542L798.687 28.3262L804.755 11.4922ZM822.3 25.9902V24.8984C822.3 24.069 822.444 23.265 822.731 22.4863C823.019 21.6908 823.392 20.9883 823.849 20.3789C824.306 19.7526 824.805 19.1517 825.347 18.5762C825.905 17.9837 826.464 17.4336 827.022 16.9258C827.581 16.401 828.089 15.8932 828.546 15.4023C829.003 14.9115 829.375 14.4036 829.663 13.8789C829.951 13.3372 830.095 12.8125 830.095 12.3047C830.095 11.4076 829.739 10.6712 829.028 10.0957C828.317 9.52018 827.369 9.23242 826.185 9.23242C824.915 9.23242 823.654 9.57096 822.401 10.248C821.166 10.9251 820.023 11.89 818.974 13.1426L813.769 7.83594C815.427 5.82161 817.357 4.26432 819.558 3.16406C821.775 2.04688 824.128 1.48828 826.616 1.48828C829.968 1.48828 832.761 2.47852 834.995 4.45898C837.246 6.42253 838.372 8.81771 838.372 11.6445C838.372 12.9648 838.093 14.2174 837.534 15.4023C836.976 16.5703 836.299 17.569 835.503 18.3984C834.724 19.2279 833.937 20.0065 833.142 20.7344C832.363 21.4453 831.694 22.1562 831.136 22.8672C830.577 23.5781 830.298 24.2552 830.298 24.8984V25.9902H822.3ZM826.286 38.5078C824.83 38.5078 823.62 38.0423 822.655 37.1113C821.69 36.1634 821.208 34.9701 821.208 33.5312C821.208 32.0924 821.69 30.8906 822.655 29.9258C823.62 28.9609 824.83 28.4785 826.286 28.4785C827.725 28.4785 828.927 28.9609 829.892 29.9258C830.856 30.8906 831.339 32.0924 831.339 33.5312C831.339 34.9531 830.856 36.138 829.892 37.0859C828.927 38.0339 827.725 38.5078 826.286 38.5078Z" fill="url(#paint0_linear_1_3)" shape-rendering="crispEdges"/>
<path d="M175.984 37.7119C179.038 37.7119 181.583 38.509 183.619 40.103C185.654 41.7163 186.951 43.9634 187.508 46.8442L178.664 49.2642C178.548 48.2847 178.097 47.4972 177.31 46.9019C176.541 46.3257 175.552 46.0376 174.342 46.0376H164.951C162.031 46.0376 159.688 45.2694 157.921 43.7329C156.174 42.1965 155.3 40.1702 155.3 37.6543C155.3 36.041 155.665 34.5334 156.395 33.1313C157.144 31.7101 158.152 30.6154 159.419 29.8472C156.788 27.3312 155.473 24.2103 155.473 20.4844C155.473 16.6816 156.817 13.5223 159.506 11.0063C162.214 8.47119 165.604 7.20361 169.675 7.20361C171.865 7.20361 173.968 7.61654 175.984 8.44238C176.426 6.8099 177.358 5.52311 178.779 4.58203C180.219 3.62174 181.967 3.1416 184.022 3.1416H186.557V11.0928H184.425C183.715 11.0928 183.1 11.2656 182.582 11.6113C182.063 11.9378 181.736 12.3796 181.602 12.9365C183.177 15.222 183.964 17.738 183.964 20.4844C183.964 24.2871 182.601 27.4561 179.874 29.9912C177.146 32.5072 173.747 33.7651 169.675 33.7651C168.158 33.7651 166.689 33.5635 165.268 33.1602C164.365 33.7363 163.914 34.5046 163.914 35.4648C163.914 36.137 164.163 36.6844 164.663 37.1069C165.162 37.5103 165.815 37.7119 166.622 37.7119H175.984ZM169.675 15.3564C168.12 15.3564 166.833 15.8462 165.815 16.8257C164.816 17.786 164.317 19.0055 164.317 20.4844C164.317 21.944 164.826 23.1636 165.844 24.1431C166.862 25.1226 168.139 25.6123 169.675 25.6123C171.212 25.6123 172.499 25.1226 173.536 24.1431C174.592 23.1636 175.12 21.944 175.12 20.4844C175.12 19.0247 174.592 17.8052 173.536 16.8257C172.499 15.8462 171.212 15.3564 169.675 15.3564ZM211.793 7.92383H220.407V38H211.793V35.0039C209.374 37.4814 206.339 38.7202 202.69 38.7202C198.561 38.7202 195.104 37.2126 192.319 34.1973C189.553 31.182 188.17 27.4368 188.17 22.9619C188.17 18.487 189.553 14.7419 192.319 11.7266C195.104 8.71126 198.561 7.20361 202.69 7.20361C206.339 7.20361 209.374 8.44238 211.793 10.9199V7.92383ZM204.418 30.3945C206.531 30.3945 208.288 29.6839 209.69 28.2627C211.092 26.8415 211.793 25.0745 211.793 22.9619C211.793 20.8493 211.092 19.0824 209.69 17.6611C208.288 16.2399 206.531 15.5293 204.418 15.5293C202.325 15.5293 200.577 16.2399 199.175 17.6611C197.792 19.0824 197.101 20.8493 197.101 22.9619C197.101 25.0745 197.792 26.8415 199.175 28.2627C200.577 29.6839 202.325 30.3945 204.418 30.3945ZM263.62 7.20361C267 7.20361 269.699 8.22152 271.715 10.2573C273.751 12.2931 274.769 14.9915 274.769 18.3525V38H266.155V20.9453C266.155 19.3128 265.675 18.0068 264.715 17.0273C263.774 16.0286 262.506 15.5293 260.912 15.5293C259.26 15.5293 257.916 16.0382 256.879 17.0562C255.842 18.0741 255.323 19.4089 255.323 21.0605V38H246.709V20.9453C246.709 19.3128 246.229 18.0068 245.269 17.0273C244.309 16.0286 243.032 15.5293 241.438 15.5293C239.786 15.5293 238.441 16.0382 237.404 17.0562C236.367 18.0741 235.849 19.4089 235.849 21.0605V38H227.235V7.92383H235.849V10.8047C238.076 8.40397 240.929 7.20361 244.405 7.20361C246.421 7.20361 248.217 7.61654 249.792 8.44238C251.367 9.24902 252.634 10.3918 253.595 11.8706C256.053 8.75928 259.395 7.20361 263.62 7.20361ZM311.183 23.0771C311.183 24.1143 311.125 25.0169 311.01 25.7852H288.597C289.135 27.4753 290.086 28.8005 291.449 29.7607C292.813 30.721 294.436 31.2012 296.318 31.2012C297.931 31.2012 299.4 30.8843 300.726 30.2505C302.051 29.6167 303.097 28.8197 303.866 27.8594L309.656 32.8721C308.024 34.7158 306.036 36.1562 303.693 37.1934C301.35 38.2113 298.815 38.7202 296.087 38.7202C291.305 38.7202 287.31 37.203 284.103 34.1685C280.915 31.1147 279.321 27.3216 279.321 22.7891C279.321 19.889 280.012 17.2482 281.395 14.8667C282.797 12.4852 284.727 10.6126 287.186 9.24902C289.644 7.88542 292.371 7.20361 295.367 7.20361C299.881 7.20361 303.645 8.71126 306.66 11.7266C309.675 14.7419 311.183 18.5254 311.183 23.0771ZM295.252 14.6362C293.639 14.6362 292.227 15.126 291.017 16.1055C289.807 17.0658 288.981 18.3813 288.54 20.0522H302.051C301.571 18.3621 300.726 17.0369 299.516 16.0767C298.306 15.1164 296.884 14.6362 295.252 14.6362Z" fill="url(#paint1_linear_1_3)" shape-rendering="crispEdges"/>
</g>
<defs>
<filter id="filter0_d_1_3" x="0.583984" y="0.548828" width="841.788" height="56.7153" filterUnits="userSpaceOnUse" color-interpolation-filters="sRGB">
<feFlood flood-opacity="0" result="BackgroundImageFix"/>
<feColorMatrix in="SourceAlpha" type="matrix" values="0 0 0 0 0 0 0 0 0 0 0 0 0 0 0 0 0 0 127 0" result="hardAlpha"/>
<feOffset dy="4"/>
<feGaussianBlur stdDeviation="2"/>
<feComposite in2="hardAlpha" operator="out"/>
<feColorMatrix type="matrix" values="0 0 0 0 0 0 0 0 0 0 0 0 0 0 0 0 0 0 0.25 0"/>
<feBlend mode="normal" in2="BackgroundImageFix" result="effect1_dropShadow_1_3"/>
<feBlend mode="normal" in="SourceGraphic" in2="effect1_dropShadow_1_3" result="shape"/>
</filter>
<linearGradient id="paint0_linear_1_3" x1="21.3529" y1="35" x2="948" y2="34.0364" gradientUnits="userSpaceOnUse">
<stop stop-color="white" stop-opacity="0.25"/>
<stop offset="0.196509" stop-color="#F0F0F0"/>
<stop offset="0.196609" stop-color="#ECECEC" stop-opacity="0.961653"/>
<stop offset="1" stop-color="#999999" stop-opacity="0.25"/>
</linearGradient>
<linearGradient id="paint1_linear_1_3" x1="21.3529" y1="35" x2="948" y2="34.0364" gradientUnits="userSpaceOnUse">
<stop stop-color="white" stop-opacity="0.25"/>
<stop offset="0.165" stop-color="#B33679"/>
<stop offset="1" stop-color="#999999" stop-opacity="0.25"/>
</linearGradient>
</defs>
</svg>
